<?xml version="1.0" standalone="no"?>
<svg xmlns:xlink="http://www.w3.org/1999/xlink" id="wave" style="transform:rotate(180deg); transition: 0.3s" viewBox="0 0 1440 100" version="1.1" xmlns="http://www.w3.org/2000/svg"><defs><linearGradient id="sw-gradient-0" x1="0" x2="0" y1="1" y2="0"><stop stop-color="rgba(243, 245, 255, 1)" offset="0%"/><stop stop-color="rgba(243, 245, 255, 1)" offset="100%"/></linearGradient></defs><path style="transform:translate(0, 0px); opacity:1" fill="url(#sw-gradient-0)" d="M0,80L24,68.3C48,57,96,33,144,21.7C192,10,240,10,288,16.7C336,23,384,37,432,48.3C480,60,528,70,576,65C624,60,672,40,720,41.7C768,43,816,67,864,65C912,63,960,37,1008,23.3C1056,10,1104,10,1152,23.3C1200,37,1248,63,1296,68.3C1344,73,1392,57,1440,56.7C1488,57,1536,73,1584,78.3C1632,83,1680,77,1728,70C1776,63,1824,57,1872,51.7C1920,47,1968,43,2016,50C2064,57,2112,73,2160,73.3C2208,73,2256,57,2304,45C2352,33,2400,27,2448,23.3C2496,20,2544,20,2592,21.7C2640,23,2688,27,2736,23.3C2784,20,2832,10,2880,5C2928,0,2976,0,3024,0C3072,0,3120,0,3168,6.7C3216,13,3264,27,3312,35C3360,43,3408,47,3432,48.3L3456,50L3456,100L3432,100C3408,100,3360,100,3312,100C3264,100,3216,100,3168,100C3120,100,3072,100,3024,100C2976,100,2928,100,2880,100C2832,100,2784,100,2736,100C2688,100,2640,100,2592,100C2544,100,2496,100,2448,100C2400,100,2352,100,2304,100C2256,100,2208,100,2160,100C2112,100,2064,100,2016,100C1968,100,1920,100,1872,100C1824,100,1776,100,1728,100C1680,100,1632,100,1584,100C1536,100,1488,100,1440,100C1392,100,1344,100,1296,100C1248,100,1200,100,1152,100C1104,100,1056,100,1008,100C960,100,912,100,864,100C816,100,768,100,720,100C672,100,624,100,576,100C528,100,480,100,432,100C384,100,336,100,288,100C240,100,192,100,144,100C96,100,48,100,24,100L0,100Z"/></svg>